<svg id="Camada_1" data-name="Camada 1" xmlns="http://www.w3.org/2000/svg" viewBox="0 0 190 85"><defs><style>.cls-1{fill:#4c87ff;}.cls-2,.cls-3{fill:#fff;}.cls-3{fill-rule:evenodd;}</style></defs><rect class="cls-1" width="190" height="85"/><g id="Page-1"><g id="portal-da-transparencia"><g id="geosiap-logo-modulo"><g id="Line"><rect class="cls-2" x="63.12" y="19.78" width="1.53" height="45.29"/></g><g id="globo"><g id="Shape"><path class="cls-3" d="M30.51,55.05c-3.9-.85-4.65,1.6-4.1,3A19.28,19.28,0,0,0,52.34,50.1C50.11,51.26,39.33,57,30.51,55.05Z"/></g><g id="Shape-2" data-name="Shape"><path class="cls-3" d="M47.19,29.63c-3-.11-12.27-9-21.67-3.34C26.06,26,28.66,25,33.72,29c1,.74,14.54,14.6,20.61,15.58a18.67,18.67,0,0,0,.35-3.68,19.33,19.33,0,0,0-5.37-13.38C49.48,28.14,49.55,29.71,47.19,29.63Z"/></g><g id="Shape-3" data-name="Shape"><path class="cls-3" d="M51.58,47.87s-6-1.28-22.62-14c-.52-.42-6.48-5.37-12.33,2.22a19.22,19.22,0,0,0-.19,8.8C19.23,40.93,35.93,54.44,51.58,47.87Z"/></g></g></g></g></g><g id="Powered-by-Geosiap-Copy"><path class="cls-3" d="M73.84,59.07V51.21H76.7a4,4,0,0,1,1.26.18,2,2,0,0,1,.79.48,1.55,1.55,0,0,1,.41.7,2.53,2.53,0,0,1,.11.83,1.87,1.87,0,0,1-1,1.74,2.57,2.57,0,0,1-1,.35,5.76,5.76,0,0,1-1.09.11H74.58v3.47ZM76.28,55a5.37,5.37,0,0,0,.94-.07,1.92,1.92,0,0,0,.7-.24,1,1,0,0,0,.44-.48,1.72,1.72,0,0,0,.15-.81A1.33,1.33,0,0,0,78,52.24a2.47,2.47,0,0,0-1.55-.39H74.56V55Zm6.42,4.25a2.73,2.73,0,0,1-1-.19,2.25,2.25,0,0,1-.83-.57,2.91,2.91,0,0,1-.56-.92,3.27,3.27,0,0,1-.2-1.29,3.52,3.52,0,0,1,.66-2.09,2.17,2.17,0,0,1,.82-.63,2.55,2.55,0,0,1,1.14-.24,2.64,2.64,0,0,1,1.16.24,2.47,2.47,0,0,1,.83.63,2.88,2.88,0,0,1,.48.94,3.93,3.93,0,0,1,.15,1.18,3.63,3.63,0,0,1-.2,1.22,2.94,2.94,0,0,1-.52.94,2.33,2.33,0,0,1-.83.61A3.43,3.43,0,0,1,82.7,59.22Zm1.9-3a4,4,0,0,0-.11-.93,2.84,2.84,0,0,0-.33-.77,1.43,1.43,0,0,0-.59-.5,2,2,0,0,0-.87-.17,1.78,1.78,0,0,0-.87.19,1.56,1.56,0,0,0-.59.55,2.65,2.65,0,0,0-.35.76,3.82,3.82,0,0,0-.11.9,3.23,3.23,0,0,0,.13,1,2.44,2.44,0,0,0,.37.76,1.5,1.5,0,0,0,.61.48,2.09,2.09,0,0,0,.83.18,1.78,1.78,0,0,0,.87-.2,1.56,1.56,0,0,0,.59-.55,1.93,1.93,0,0,0,.33-.76A3.93,3.93,0,0,0,84.6,56.25Zm6.7,2,1.48-4.78h.68l-1.83,5.65h-.7l-1.22-4.76h0l-1.26,4.76h-.81l-1.72-5.65h.65L88,58.24l1.31-4.82h.75Zm7.18-2.36a2.85,2.85,0,0,0-.11-.79,1.89,1.89,0,0,0-.33-.63,1.3,1.3,0,0,0-.56-.41,1.71,1.71,0,0,0-.77-.16A1.47,1.47,0,0,0,96,54a1.9,1.9,0,0,0-.57.43,2.24,2.24,0,0,0-.37.64,4.71,4.71,0,0,0-.2.76h3.67v0Zm-3.69.57a3.16,3.16,0,0,0,.13.87,2.55,2.55,0,0,0,.35.7,1.76,1.76,0,0,0,.59.48,1.72,1.72,0,0,0,.83.17,1.66,1.66,0,0,0,1.09-.35,1.58,1.58,0,0,0,.61-1h.72a3.36,3.36,0,0,1-.3.75,2.94,2.94,0,0,1-.48.61,2.18,2.18,0,0,1-.7.39,3,3,0,0,1-.94.13A2.42,2.42,0,0,1,95.51,59a2.3,2.3,0,0,1-.81-.63,2.23,2.23,0,0,1-.45-.94,4.78,4.78,0,0,1-.16-1.16,3.85,3.85,0,0,1,.18-1.15,2.78,2.78,0,0,1,.52-1,2.28,2.28,0,0,1,.81-.64,2.56,2.56,0,0,1,1.09-.24,2.18,2.18,0,0,1,1.83.81,3.62,3.62,0,0,1,.66,2.34H94.79v0Zm6.35,2.66h-.65V53.42h.65v1h0a1.85,1.85,0,0,1,.7-.93,2.16,2.16,0,0,1,1.14-.27V54a1.94,1.94,0,0,0-.92.18,1.39,1.39,0,0,0-.57.5,2.45,2.45,0,0,0-.3.74,5.28,5.28,0,0,0-.09.9l0,2.79ZM108,55.84a3.27,3.27,0,0,0-.11-.79,2.14,2.14,0,0,0-.35-.63A1.33,1.33,0,0,0,107,54a1.74,1.74,0,0,0-.79-.16,1.43,1.43,0,0,0-.76.18,2,2,0,0,0-.57.43,2.24,2.24,0,0,0-.37.64,2.8,2.8,0,0,0-.17.76H108v0Zm-3.69.57a3.58,3.58,0,0,0,.11.87,2.09,2.09,0,0,0,.35.7,1.76,1.76,0,0,0,.59.48,1.7,1.7,0,0,0,.82.17,1.8,1.8,0,0,0,1.12-.35,1.63,1.63,0,0,0,.61-1h.74a4,4,0,0,1-.33.75,2.2,2.2,0,0,1-.48.61,2,2,0,0,1-.69.39,3,3,0,0,1-.94.13A2.47,2.47,0,0,1,105,59a2.3,2.3,0,0,1-.81-.63,2.24,2.24,0,0,1-.46-.94,4,4,0,0,1-.15-1.16,3.85,3.85,0,0,1,.17-1.15,2.76,2.76,0,0,1,.51-1,2.25,2.25,0,0,1,.8-.64,2.56,2.56,0,0,1,1.09-.24,2.21,2.21,0,0,1,1.84.81,3.68,3.68,0,0,1,.65,2.34h-4.36v0Zm10-.2a3.06,3.06,0,0,0-.14-.92,2.14,2.14,0,0,0-.37-.74,1.84,1.84,0,0,0-1.41-.7,1.82,1.82,0,0,0-.88.2,1.79,1.79,0,0,0-.61.55,2.63,2.63,0,0,0-.35.8,4,4,0,0,0-.09,1,2.5,2.5,0,0,0,.16.94,1.92,1.92,0,0,0,.41.69,1.79,1.79,0,0,0,1.38.59,1.84,1.84,0,0,0,.83-.19,2.09,2.09,0,0,0,.61-.5,2.21,2.21,0,0,0,.37-.77A6.68,6.68,0,0,0,114.33,56.21Zm0-5H115v7.86h-.65v-1h0a1.48,1.48,0,0,1-.37.5,2.36,2.36,0,0,1-.48.35,4.08,4.08,0,0,1-.54.22,2.76,2.76,0,0,1-.57.06,2.29,2.29,0,0,1-1.16-.24,2,2,0,0,1-.78-.63,2.66,2.66,0,0,1-.46-.94,4.75,4.75,0,0,1,0-2.29,3.17,3.17,0,0,1,.46-1,2.79,2.79,0,0,1,.78-.66,2.39,2.39,0,0,1,1.12-.24,2.75,2.75,0,0,1,1.15.26,2,2,0,0,1,.88.79l0-3.08Zm6.06,5a3.65,3.65,0,0,0,.13,1,2.06,2.06,0,0,0,.38.77,1.5,1.5,0,0,0,.61.5,1.67,1.67,0,0,0,.83.19,1.75,1.75,0,0,0,.76-.15,1.47,1.47,0,0,0,.61-.44,2.06,2.06,0,0,0,.42-.69,2.81,2.81,0,0,0,.15-.94,3.69,3.69,0,0,0-.09-1,2.16,2.16,0,0,0-.35-.8,1.61,1.61,0,0,0-.61-.55,1.89,1.89,0,0,0-.87-.2,1.65,1.65,0,0,0-.81.2,2.3,2.3,0,0,0-.61.5,2,2,0,0,0-.37.74A2.35,2.35,0,0,0,120.39,56.21Zm0,2.86h-.65V51.21h.65v3.1a2,2,0,0,1,.88-.78,2.66,2.66,0,0,1,2.27,0,3.11,3.11,0,0,1,.78.66,2.45,2.45,0,0,1,.46,1,3.9,3.9,0,0,1,.15,1.13,4.68,4.68,0,0,1-.13,1.16,2.13,2.13,0,0,1-.46.94,2.38,2.38,0,0,1-.78.63,2.61,2.61,0,0,1-1.18.24,2.64,2.64,0,0,1-.55-.06,2.55,2.55,0,0,1-.54-.22,1.91,1.91,0,0,1-.48-.35,2.32,2.32,0,0,1-.37-.5h0l0,1Zm5.9,1.55.26,0a.83.83,0,0,0,.28,0,.61.61,0,0,0,.44-.18,1.3,1.3,0,0,0,.28-.41c.07-.18.13-.33.2-.53a2.46,2.46,0,0,1,.17-.46l-2.18-5.69h.72l1.81,4.84,1.81-4.84h.7L128.67,59l-.38,1a3.42,3.42,0,0,1-.39.72,1.44,1.44,0,0,1-.46.46,1,1,0,0,1-.59.15,1.72,1.72,0,0,1-.32,0,1.67,1.67,0,0,0-.29,0v-.59Zm12-5V55h3.36v4.06H141V57.74a3.87,3.87,0,0,1-.48.63,2.58,2.58,0,0,1-.62.48,3.17,3.17,0,0,1-.8.31,5.46,5.46,0,0,1-1.05.11,3.47,3.47,0,0,1-1.38-.27,3,3,0,0,1-1.09-.78,4,4,0,0,1-.72-1.31,5.94,5.94,0,0,1-.26-1.83,5.66,5.66,0,0,1,.22-1.62,3.39,3.39,0,0,1,.68-1.29,3.17,3.17,0,0,1,1.13-.87,3.66,3.66,0,0,1,1.62-.31,3.75,3.75,0,0,1,2.13.62,2.45,2.45,0,0,1,.72.78,3.33,3.33,0,0,1,.44,1.09h-.76a2.7,2.7,0,0,0-.33-.78,2,2,0,0,0-.57-.59,2.34,2.34,0,0,0-.74-.37,2.57,2.57,0,0,0-.83-.13,3,3,0,0,0-1.33.26,2.34,2.34,0,0,0-.92.76,3.26,3.26,0,0,0-.52,1.18,6.49,6.49,0,0,0-.18,1.53,3.93,3.93,0,0,0,.2,1.24,3.51,3.51,0,0,0,.55,1.05,2.54,2.54,0,0,0,.89.7,2.78,2.78,0,0,0,1.2.26,3,3,0,0,0,.66-.07,2.58,2.58,0,0,0,.65-.24,2,2,0,0,0,.59-.41,3.16,3.16,0,0,0,.48-.63,2.37,2.37,0,0,0,.26-.79,7.38,7.38,0,0,0,.09-.85h-2.66Zm9.16.2a2.85,2.85,0,0,0-.11-.79,1.87,1.87,0,0,0-.32-.63,1.39,1.39,0,0,0-.57-.41,2.1,2.1,0,0,0-.76-.16,1.49,1.49,0,0,0-.77.18,2,2,0,0,0-.57.43,2.24,2.24,0,0,0-.37.64,4.69,4.69,0,0,0-.19.76h3.66Zm-3.71.57a4.14,4.14,0,0,0,.11.87,2.55,2.55,0,0,0,.35.7,1.69,1.69,0,0,0,1.42.65,1.68,1.68,0,0,0,1.7-1.31H148a4,4,0,0,1-.33.75,2.4,2.4,0,0,1-.48.61,2.18,2.18,0,0,1-.7.39,3,3,0,0,1-.94.13,2.34,2.34,0,0,1-1.16-.24,2.27,2.27,0,0,1-.8-.63,2.53,2.53,0,0,1-.48-.94,4,4,0,0,1-.16-1.16,3.85,3.85,0,0,1,.18-1.15,2.72,2.72,0,0,1,.52-1,2.28,2.28,0,0,1,.81-.64,2.56,2.56,0,0,1,1.09-.24,2.18,2.18,0,0,1,1.83.81,3.62,3.62,0,0,1,.66,2.34H143.7Zm7.93,2.81a2.73,2.73,0,0,1-1-.19,2.17,2.17,0,0,1-.83-.57,2.88,2.88,0,0,1-.57-.92,3.46,3.46,0,0,1-.21-1.29,3.3,3.3,0,0,1,.17-1.15,3.09,3.09,0,0,1,.48-.94,2.21,2.21,0,0,1,.83-.63,2.54,2.54,0,0,1,1.13-.24,2.64,2.64,0,0,1,1.16.24,2.38,2.38,0,0,1,.83.63,2.7,2.7,0,0,1,.48.94,3.93,3.93,0,0,1,.15,1.18,4.23,4.23,0,0,1-.17,1.22,3.14,3.14,0,0,1-.52.94,2.63,2.63,0,0,1-.83.61A3.33,3.33,0,0,1,151.63,59.22Zm1.92-3a4.56,4.56,0,0,0-.11-.93,2.33,2.33,0,0,0-.33-.77,1.43,1.43,0,0,0-.59-.5,2.19,2.19,0,0,0-1.74,0,1.56,1.56,0,0,0-.59.55,2,2,0,0,0-.33.76,3.82,3.82,0,0,0-.11.9,3.23,3.23,0,0,0,.13,1,2.24,2.24,0,0,0,.37.76,1.65,1.65,0,0,0,.61.48,2,2,0,0,0,.83.18,1.84,1.84,0,0,0,.88-.2,1.53,1.53,0,0,0,.58-.55,2.15,2.15,0,0,0,.33-.76C153.5,56.84,153.55,56.56,153.55,56.25Zm2.27,1a1.74,1.74,0,0,0,.54,1,2,2,0,0,0,1.14.3,2.09,2.09,0,0,0,.63-.08,1.23,1.23,0,0,0,.44-.24,1.35,1.35,0,0,0,.26-.33.86.86,0,0,0,.09-.39.72.72,0,0,0-.27-.62,1.66,1.66,0,0,0-.67-.3c-.29-.07-.57-.15-.88-.2a3.49,3.49,0,0,1-.87-.24,1.78,1.78,0,0,1-.67-.46,1.2,1.2,0,0,1-.27-.85,1.43,1.43,0,0,1,.53-1.15,2.11,2.11,0,0,1,1.46-.46,2.4,2.4,0,0,1,1.48.41,1.87,1.87,0,0,1,.7,1.38h-.65a1.23,1.23,0,0,0-.5-.92,1.92,1.92,0,0,0-1-.26,1.55,1.55,0,0,0-1,.26.87.87,0,0,0-.33.7.7.7,0,0,0,.26.59,2.39,2.39,0,0,0,.68.33c.26.08.57.15.87.21a4.13,4.13,0,0,1,.88.29,2.09,2.09,0,0,1,.67.48,1.2,1.2,0,0,1,.26.85,1.59,1.59,0,0,1-.17.72,1.69,1.69,0,0,1-.48.52,2.37,2.37,0,0,1-.72.31,4.38,4.38,0,0,1-.92.11,2.52,2.52,0,0,1-.89-.15,1.74,1.74,0,0,1-.66-.42,2.09,2.09,0,0,1-.43-.61,2.12,2.12,0,0,1-.18-.76h.66V57.3ZM161,59.07V53.42h.65v5.65Zm0-6.9v-1h.72v1Zm6,3.93a3.57,3.57,0,0,1-.83.24,7.89,7.89,0,0,1-.85.09,2.62,2.62,0,0,0-1.18.33,1.09,1.09,0,0,0-.3,1.33.64.64,0,0,0,.26.3,1,1,0,0,0,.39.2,1.9,1.9,0,0,0,.46.07,3.25,3.25,0,0,0,.77-.09,2.44,2.44,0,0,0,.65-.31,1.29,1.29,0,0,0,.46-.52A1.56,1.56,0,0,0,167,57v-.9Zm-1.09-.33.44-.06a1.1,1.1,0,0,0,.41-.13.35.35,0,0,0,.2-.26,2.43,2.43,0,0,0,0-.33,1.16,1.16,0,0,0-.32-.83,1.48,1.48,0,0,0-1.09-.33,2.67,2.67,0,0,0-.64.07,1.86,1.86,0,0,0-.5.19,1.22,1.22,0,0,0-.35.4,1.47,1.47,0,0,0-.17.61h-.66a2.36,2.36,0,0,1,.22-.85,1.65,1.65,0,0,1,.5-.57,2.39,2.39,0,0,1,.72-.33,4.24,4.24,0,0,1,.88-.11,3,3,0,0,1,.8.09,1.56,1.56,0,0,1,1.09.85,1.92,1.92,0,0,1,.16.83v3.08c0,.26,0,.41.13.48s.28,0,.54,0V59l-.21.06a1.47,1.47,0,0,1-.29,0,1,1,0,0,1-.3,0,.47.47,0,0,1-.27-.11.42.42,0,0,1-.15-.19,2.34,2.34,0,0,1-.09-.24,1.42,1.42,0,0,1,0-.29,2.61,2.61,0,0,1-1,.7,2.77,2.77,0,0,1-1.16.24,2.94,2.94,0,0,1-.72-.08,2.34,2.34,0,0,1-.61-.31,1.67,1.67,0,0,1-.41-.5,1.47,1.47,0,0,1-.15-.72c0-1,.65-1.53,2-1.7Zm4.19.48a3.35,3.35,0,0,0,.13.92,2.15,2.15,0,0,0,.38.74,2,2,0,0,0,.61.53,1.63,1.63,0,0,0,.8.19,1.87,1.87,0,0,0,.88-.19,1.79,1.79,0,0,0,.61-.55,2.58,2.58,0,0,0,.35-.81,3.53,3.53,0,0,0,.08-1,2.47,2.47,0,0,0-.15-.94,2,2,0,0,0-.41-.7,1.88,1.88,0,0,0-.61-.43,2,2,0,0,0-1.6,0,2,2,0,0,0-.61.5,2.24,2.24,0,0,0-.37.76A3.44,3.44,0,0,0,170.11,56.25Zm0,5h-.65V53.42h.65v1h0a1.32,1.32,0,0,1,.37-.48,1.79,1.79,0,0,1,.48-.35,3.07,3.07,0,0,1,.54-.22,2.82,2.82,0,0,1,.57-.09,2.66,2.66,0,0,1,1.16.24,2.15,2.15,0,0,1,.78.64,3.05,3.05,0,0,1,.46.94,4.82,4.82,0,0,1,.13,1.17,3.92,3.92,0,0,1-.15,1.14,3.17,3.17,0,0,1-.46,1,2.48,2.48,0,0,1-.79.65,2.17,2.17,0,0,1-1.11.24A2.68,2.68,0,0,1,171,59a2,2,0,0,1-.87-.78v3.1Z"/></g><path class="cls-2" d="M74.69,34.53V40H73.16V26.86h3.6a5.63,5.63,0,0,1,3.57.93,3.34,3.34,0,0,1,1.16,2.78,3.48,3.48,0,0,1-2.64,3.52L82.42,40H80.61l-3.18-5.47Zm0-1.31h2.09a3.59,3.59,0,0,0,2.37-.64,2.38,2.38,0,0,0,.76-1.93,2.18,2.18,0,0,0-.77-1.87,4.1,4.1,0,0,0-2.47-.58h-2Z"/><path class="cls-2" d="M94.88,40H93.35V33.82H86.43V40H84.9V26.86h1.53v5.59h6.92V26.86h1.53Z"/><path class="cls-2" d="M115.39,33.41a7.24,7.24,0,0,1-1.59,5,6.43,6.43,0,0,1-8.91,0,7.29,7.29,0,0,1-1.58-5,7.23,7.23,0,0,1,1.58-5,5.71,5.71,0,0,1,4.49-1.76,5.58,5.58,0,0,1,4.42,1.79A7.23,7.23,0,0,1,115.39,33.41Zm-10.46,0a6.29,6.29,0,0,0,1.13,4.05,4,4,0,0,0,3.31,1.38,4,4,0,0,0,3.29-1.38,6.25,6.25,0,0,0,1.12-4.05,6.25,6.25,0,0,0-1.11-4A4,4,0,0,0,109.38,28a4.06,4.06,0,0,0-3.32,1.38A6.22,6.22,0,0,0,104.93,33.41Z"/><path class="cls-2" d="M125.2,40V33.63a2.6,2.6,0,0,0-.54-1.8,2.23,2.23,0,0,0-1.72-.59,2.84,2.84,0,0,0-2.26.83,4.23,4.23,0,0,0-.72,2.76V40h-1.49V30.15h1.21l.24,1.35H120a3.09,3.09,0,0,1,1.29-1.13,4.11,4.11,0,0,1,1.84-.4,3.75,3.75,0,0,1,2.68.86,3.64,3.64,0,0,1,.9,2.74V40Z"/><path class="cls-2" d="M131.62,40h-1.49V26h1.49Z"/><path class="cls-2" d="M135,27.48a1,1,0,0,1,.26-.75.91.91,0,0,1,1.24,0,1.2,1.2,0,0,1,0,1.49.84.84,0,0,1-.62.25.81.81,0,0,1-.62-.25A1,1,0,0,1,135,27.48ZM136.64,40h-1.49V30.15h1.49Z"/><path class="cls-2" d="M146.91,40V33.63a2.55,2.55,0,0,0-.55-1.8,2.2,2.2,0,0,0-1.71-.59,2.87,2.87,0,0,0-2.27.83,4.23,4.23,0,0,0-.72,2.76V40h-1.49V30.15h1.21l.25,1.35h.07A3,3,0,0,1,143,30.37a4.15,4.15,0,0,1,1.85-.4,3.74,3.74,0,0,1,2.67.86,3.64,3.64,0,0,1,.9,2.74V40Z"/><path class="cls-2" d="M156,40.18a4.54,4.54,0,0,1-3.44-1.33,5.13,5.13,0,0,1-1.27-3.7,5.74,5.74,0,0,1,1.18-3.78,3.9,3.9,0,0,1,3.15-1.4,3.69,3.69,0,0,1,2.92,1.22,4.65,4.65,0,0,1,1.08,3.21v.94h-6.78a3.89,3.89,0,0,0,.88,2.64,3,3,0,0,0,2.34.89,8,8,0,0,0,3.14-.66v1.33a8.07,8.07,0,0,1-1.49.49A8.42,8.42,0,0,1,156,40.18Zm-.4-9a2.45,2.45,0,0,0-1.89.77,3.56,3.56,0,0,0-.83,2.14H158a3.27,3.27,0,0,0-.63-2.16A2.19,2.19,0,0,0,155.59,31.22Z"/></svg>